<svg width="437" height="152" viewBox="0 0 437 152" fill="none" xmlns="http://www.w3.org/2000/svg">
<path d="M11.52 120C10.6667 120 9.94133 119.701 9.344 119.104C8.74667 118.507 8.448 117.781 8.448 116.928V56.512C8.448 55.6587 8.74667 54.9333 9.344 54.336C9.94133 53.7387 10.6667 53.44 11.52 53.44H22.016C22.8693 53.44 23.5947 53.7387 24.192 54.336C24.7893 54.9333 25.088 55.6587 25.088 56.512V61.76C27.3067 59.0293 30.1227 56.768 33.536 54.976C37.0347 53.0987 41.344 52.16 46.464 52.16C51.6693 52.16 56.192 53.3547 60.032 55.744C63.872 58.048 66.816 61.3333 68.864 65.6C70.9973 69.8667 72.064 74.9867 72.064 80.96V116.928C72.064 117.781 71.7653 118.507 71.168 119.104C70.5707 119.701 69.8453 120 68.992 120H57.728C56.8747 120 56.1493 119.701 55.552 119.104C54.9547 118.507 54.656 117.781 54.656 116.928V81.728C54.656 76.7787 53.4187 72.896 50.944 70.08C48.5547 67.264 45.056 65.856 40.448 65.856C36.0107 65.856 32.4693 67.264 29.824 70.08C27.1787 72.896 25.856 76.7787 25.856 81.728V116.928C25.856 117.781 25.5573 118.507 24.96 119.104C24.3627 119.701 23.6373 120 22.784 120H11.52ZM110.23 120C109.547 120 108.907 119.744 108.31 119.232C107.798 118.72 107.542 118.08 107.542 117.312C107.542 116.971 107.627 116.587 107.798 116.16L138.646 33.6C138.902 32.7467 139.371 32.0213 140.054 31.424C140.822 30.7413 141.846 30.4 143.126 30.4H157.078C158.358 30.4 159.339 30.7413 160.022 31.424C160.705 32.0213 161.217 32.7467 161.558 33.6L192.406 116.16C192.491 116.587 192.534 116.971 192.534 117.312C192.534 118.08 192.278 118.72 191.766 119.232C191.254 119.744 190.657 120 189.974 120H178.838C177.643 120 176.747 119.744 176.15 119.232C175.638 118.635 175.297 118.08 175.126 117.568L169.11 101.952H131.094L125.078 117.568C124.907 118.08 124.523 118.635 123.926 119.232C123.414 119.744 122.561 120 121.366 120H110.23ZM135.574 87.232H164.63L150.038 47.68L135.574 87.232ZM207.556 120C206.703 120 205.977 119.701 205.38 119.104C204.783 118.507 204.484 117.781 204.484 116.928V33.6C204.484 32.6613 204.783 31.8933 205.38 31.296C205.977 30.6987 206.703 30.4 207.556 30.4H244.676C251.588 30.4 257.22 31.4667 261.572 33.6C265.924 35.648 269.124 38.5067 271.172 42.176C273.305 45.8453 274.372 50.112 274.372 54.976C274.372 58.2187 273.775 61.0773 272.58 63.552C271.471 65.9413 270.063 67.904 268.356 69.44C266.735 70.976 265.113 72.1707 263.492 73.024C266.82 74.56 269.764 77.12 272.324 80.704C274.884 84.288 276.164 88.5547 276.164 93.504C276.164 98.624 275.012 103.189 272.708 107.2C270.404 111.211 266.991 114.368 262.468 116.672C257.945 118.891 252.356 120 245.7 120H207.556ZM222.276 106.432H243.652C248.26 106.432 251.759 105.195 254.148 102.72C256.537 100.16 257.732 97.088 257.732 93.504C257.732 89.7493 256.495 86.6347 254.02 84.16C251.631 81.6853 248.175 80.448 243.652 80.448H222.276V106.432ZM222.276 67.136H242.372C246.895 67.136 250.265 66.0693 252.484 63.936C254.788 61.7173 255.94 58.8587 255.94 55.36C255.94 51.776 254.788 49.0027 252.484 47.04C250.265 44.992 246.895 43.968 242.372 43.968H222.276V67.136ZM295.306 120C294.453 120 293.727 119.701 293.13 119.104C292.533 118.507 292.234 117.781 292.234 116.928V33.472C292.234 32.6187 292.533 31.8933 293.13 31.296C293.727 30.6987 294.453 30.4 295.306 30.4H307.21C308.063 30.4 308.789 30.6987 309.386 31.296C309.983 31.8933 310.282 32.6187 310.282 33.472V104.768H350.858C351.797 104.768 352.565 105.067 353.162 105.664C353.759 106.261 354.058 107.029 354.058 107.968V116.928C354.058 117.781 353.759 118.507 353.162 119.104C352.565 119.701 351.797 120 350.858 120H295.306ZM369.556 120C368.703 120 367.977 119.701 367.38 119.104C366.783 118.507 366.484 117.781 366.484 116.928V33.6C366.484 32.6613 366.783 31.8933 367.38 31.296C367.977 30.6987 368.703 30.4 369.556 30.4H425.876C426.815 30.4 427.583 30.6987 428.18 31.296C428.777 31.8933 429.076 32.6613 429.076 33.6V42.048C429.076 42.9013 428.777 43.6267 428.18 44.224C427.583 44.8213 426.815 45.12 425.876 45.12H383.764V67.776H423.06C423.999 67.776 424.767 68.0747 425.364 68.672C425.961 69.184 426.26 69.9093 426.26 70.848V78.784C426.26 79.7227 425.961 80.4907 425.364 81.088C424.767 81.6 423.999 81.856 423.06 81.856H383.764V105.28H426.9C427.839 105.28 428.607 105.579 429.204 106.176C429.801 106.773 430.1 107.541 430.1 108.48V116.928C430.1 117.781 429.801 118.507 429.204 119.104C428.607 119.701 427.839 120 426.9 120H369.556Z" fill="#1E1E1E"/>
<path d="M99.3069 35.674C100.262 32.9834 103.273 31.6378 105.915 32.7206L111.848 35.1524C113.606 35.873 114.804 37.5276 114.939 39.4226L115.57 48.2603C115.623 49.0035 115.513 49.75 115.211 50.4309C114.851 51.2414 114.316 52.3536 113.785 53.1206C112.612 54.8151 112.449 55.3998 110.986 56.8522C102.76 65.0237 86.7315 76.3418 86.7315 76.3418L84.8658 76.3418L99.3069 35.674Z" fill="#1E1E1E"/>
<circle cx="99.7918" cy="43.7918" r="14.7918" fill="#87D9BB" stroke="#1E1E1E" stroke-width="4"/>
<circle cx="100" cy="44" r="6" fill="#1E1E1E"/>
</svg>
