<svg width="43" height="43" viewBox="0 0 43 43" fill="none" xmlns="http://www.w3.org/2000/svg">
<circle cx="21.1373" cy="21.1373" r="21.1373" fill="#F3AF82"/>
<path d="M9.94147 24.0045L13.0135 20.1544" stroke="white"/>
<path d="M7.54883 18.3094L12.4392 17.7218" stroke="white"/>
<path d="M8.64471 12.4676L12.4948 15.5396" stroke="white"/>
<path d="M24.4027 29.373L21.0589 27.676C20.9592 27.6253 20.8428 27.6188 20.738 27.6579L18.2378 28.5908C18.1393 28.6276 18.0304 28.6241 17.9345 28.5811L15.9598 27.6969C15.8222 27.6354 15.6617 27.6563 15.5446 27.7511L13.9668 29.0286C13.8955 29.0862 13.8067 29.1177 13.7151 29.1177H13.387H11.3723C11.179 29.1177 11.0133 29.256 10.9788 29.4463L10.6542 31.2345C10.6097 31.48 10.7983 31.7059 11.0478 31.7059H30.4661C30.6441 31.7059 30.8006 31.5884 30.8502 31.4175L31.5574 28.9822C31.6317 28.7263 31.4397 28.4706 31.1732 28.4706H29.4602C29.3927 28.4706 29.3263 28.4535 29.2672 28.421L27.2708 27.3209C27.1154 27.2353 26.9222 27.2622 26.7962 27.3871L24.8653 29.3005C24.7428 29.4218 24.5564 29.4511 24.4027 29.373Z" stroke="white"/>
<path d="M16.6078 16.6079L31.7059 16.6079" stroke="white"/>
<path d="M24.1569 24.1569V9.05888" stroke="white"/>
<path d="M18.1177 22.3879L30.1961 10.5685" stroke="white"/>
<path d="M30.1961 22.3879L18.1177 10.5685" stroke="white"/>
<circle cx="24.1568" cy="16.6079" r="8.30882" stroke="white" stroke-width="1.5"/>
<circle cx="24.1567" cy="16.6079" r="2.12059" fill="#F3AF82" stroke="white" stroke-width="0.7"/>
</svg>
