<svg width="43" height="43" viewBox="0 0 43 43" fill="none" xmlns="http://www.w3.org/2000/svg">
<circle cx="21.1373" cy="21.1373" r="21.1373" fill="#68C9A5"/>
<path d="M23.4522 10.9713C24.8142 10.9713 25.9182 9.8672 25.9182 8.50526C25.9182 7.14332 24.8142 6.03925 23.4522 6.03925C22.0903 6.03925 20.9862 7.14332 20.9862 8.50526C20.9862 9.8672 22.0903 10.9713 23.4522 10.9713Z" fill="white"/>
<path d="M23.858 12.4641C24.3142 12.9507 23.4681 13.8245 23.858 15.7726C24.0568 16.7625 24.4302 17.3365 24.5115 17.4586C25.1408 18.3987 26.0186 18.8341 26.4643 19.0179C28.4066 18.8462 29.4003 19.4835 29.8339 19.8466C30.4437 20.3558 30.915 21.1302 31.5293 25.0008C31.8078 26.7575 31.9764 28.2566 32.0833 29.3896L28.777 29.4664C29.0841 27.6464 29.0796 26.1277 29.0073 25.043C28.9019 23.4474 28.7544 21.6139 27.7637 21.2477C27.2864 21.0715 26.7594 21.2914 26.3965 21.4994C26.1571 20.8304 25.0083 17.8352 22.1642 16.889C21.6252 16.7098 21.0982 16.6284 20.6028 16.6088C20.6209 15.4623 20.642 14.8882 20.6646 14.8882C20.7173 14.8882 21.062 16.9642 21.1373 23.4021C21.068 23.9655 20.6329 24.3784 20.1767 24.4025C19.6105 24.4326 19.0309 23.8646 19.1001 23.1324C19.1905 20.0905 18.7554 18.8884 18.5898 17.2732C18.5085 16.4868 18.4392 15.8103 18.7434 15.0042C19.585 12.7729 23.1022 11.661 23.8565 12.4656L23.858 12.4641Z" fill="white"/>
<path d="M24.0404 12.2931C23.9188 12.4071 23.7972 12.5211 23.6756 12.635C23.8762 12.8034 23.5965 13.5159 23.5456 14.0645C23.4688 14.6485 23.4964 15.2466 23.6129 15.8217C23.6245 15.8795 23.6367 15.9362 23.6498 15.9929C23.7809 16.552 23.9778 17.0967 24.3034 17.5972C24.8036 18.3489 25.5493 18.9134 26.369 19.249L26.4255 19.2723L26.4863 19.2669C27.621 19.1639 28.827 19.3277 29.6734 20.0382C30.8546 21.2012 30.9339 23.2938 31.2824 25.04C31.5125 26.4914 31.6966 27.9505 31.8344 29.4131L32.0775 29.1397C30.9754 29.1653 29.8733 29.1909 28.7711 29.2165L29.0235 29.508C29.273 28.0302 29.3568 26.523 29.2568 25.0263C29.2098 24.3315 29.1633 23.6279 29.026 22.9218C28.8707 22.2504 28.7064 21.3818 27.8503 21.0132C27.2629 20.806 26.7054 21.039 26.2723 21.2824L26.6319 21.4151C25.8866 19.3644 24.4307 17.3753 22.2431 16.6518C21.7164 16.4763 21.1644 16.3805 20.6127 16.359L20.8528 16.6128C20.8574 16.3258 20.8625 16.0389 20.8694 15.7528C20.8729 15.6103 20.8768 15.4669 20.8819 15.3254C20.8845 15.2546 20.8874 15.1831 20.891 15.1141C20.8929 15.0791 20.8949 15.0452 20.8974 15.0126C20.8987 14.9959 20.9 14.9807 20.9015 14.9672C20.9022 14.9611 20.903 14.9547 20.9033 14.9528C20.9034 14.9523 20.9038 14.9511 20.9023 14.9577C20.9011 14.9621 20.9016 14.962 20.8962 14.9779C20.8933 14.9857 20.8895 14.996 20.8805 15.0122C20.875 15.0098 20.8481 15.1244 20.6646 15.1382C20.4746 16.6075 20.8478 18.9242 20.8379 20.8231C20.8614 21.6802 20.8772 22.5438 20.8873 23.405L20.8891 23.3716C20.8495 23.7683 20.5173 24.1379 20.1635 24.1528C19.712 24.1815 19.2808 23.653 19.349 23.1559L19.35 23.1398C19.3629 22.7074 19.3663 22.2739 19.3573 21.8428C19.3548 20.2864 19.0167 18.7354 18.8385 17.2477C18.7518 16.4856 18.711 15.7612 18.9773 15.0925C19.2746 14.3068 19.9292 13.6714 20.6692 13.2175C21.5759 12.6695 22.9665 12.1723 23.6742 12.6366L23.8508 12.825L24.0334 12.6423C24.0339 12.6418 24.0344 12.6413 24.0349 12.6408C23.917 12.523 23.7991 12.4051 23.6812 12.2873C23.6807 12.2878 23.6802 12.2883 23.6797 12.2888L24.0389 12.2946C23.3695 11.7501 22.6974 11.9663 22.1018 12.0761C21.4994 12.2258 20.933 12.4712 20.4081 12.7911C19.6044 13.2861 18.8659 13.9827 18.5095 14.916C18.1998 15.6876 18.2547 16.5488 18.3411 17.2989C18.5295 18.8597 18.854 20.3259 18.8574 21.8533C18.8662 22.2747 18.8629 22.6998 18.8502 23.125L18.8512 23.1088C18.7645 23.8547 19.3429 24.6753 20.19 24.6521C20.861 24.6043 21.3172 24.0226 21.3854 23.4326L21.3872 23.3991C21.3771 22.5357 21.3613 21.6696 21.3377 20.8093C21.1819 18.7579 21.5255 17.0613 20.6646 14.6382C20.4795 14.6517 20.4501 14.7695 20.4439 14.7685C20.4341 14.7863 20.4294 14.7986 20.4257 14.8087C20.4183 14.8303 20.4183 14.8324 20.4159 14.8417C20.4119 14.8592 20.4113 14.8636 20.4097 14.8734C20.4073 14.8884 20.4058 14.9012 20.4045 14.912C20.402 14.9351 20.4004 14.954 20.3989 14.9744C20.3959 15.0135 20.3937 15.0502 20.3917 15.0876C20.3879 15.1613 20.3849 15.2347 20.3823 15.3073C20.3771 15.4521 20.3731 15.5969 20.3696 15.7407C20.3626 16.0291 20.3574 16.317 20.3529 16.6049L20.349 16.849L20.593 16.8586C21.1013 16.8784 21.605 16.9662 22.0853 17.1263C24.0695 17.7761 25.4531 19.6302 26.1612 21.5836L26.2618 21.8647L26.5208 21.7163C26.9023 21.4955 27.3401 21.3538 27.677 21.4823C28.6713 22.0185 28.6357 23.7597 28.7579 25.0594C28.8552 26.5157 28.7738 27.9837 28.5304 29.4248L28.4801 29.7234L28.7828 29.7164C29.8849 29.6908 30.987 29.6651 32.0891 29.6395L32.3574 29.6333L32.3322 29.3661C32.1934 27.8932 32.008 26.4235 31.7762 24.9616C31.3909 23.1751 31.4616 21.1816 29.9942 19.6547C28.9904 18.8184 27.647 18.6617 26.4423 18.7689L26.5596 18.7868C25.8182 18.4829 25.1586 17.9798 24.7192 17.3195C24.4437 16.8979 24.2556 16.3919 24.137 15.8807C24.125 15.8286 24.1138 15.7765 24.1031 15.7234C23.9964 15.194 23.972 14.6596 24.0415 14.1279C24.0747 13.8613 24.1327 13.5997 24.1902 13.3158C24.2173 13.1732 24.2469 13.0248 24.2471 12.8488C24.2509 12.6765 24.1888 12.4423 24.0404 12.2931ZM23.6756 12.635L24.0404 12.2931L23.8638 12.1047L23.6812 12.2873L24.0349 12.6408L23.6756 12.635Z" fill="white"/>
<path d="M20.3699 30.6993C24.1152 30.6993 27.1514 27.6631 27.1514 23.9178C27.1514 20.1725 24.1152 17.1363 20.3699 17.1363C16.6245 17.1363 13.5883 20.1725 13.5883 23.9178C13.5883 27.6631 16.6245 30.6993 20.3699 30.6993Z" stroke="white" stroke-width="1.5" stroke-miterlimit="10"/>
</svg>
