<svg width="43" height="43" viewBox="0 0 43 43" fill="none" xmlns="http://www.w3.org/2000/svg">
<circle cx="21.1373" cy="21.1373" r="21.1373" fill="#F4A46E"/>
<path d="M8.44946 11.2444C8.37249 10.8136 8.84707 10.499 9.21411 10.7375L34.6438 27.2668C35.0611 27.5381 34.869 28.1868 34.3713 28.1868H11.9075C11.6654 28.1868 11.4581 28.0129 11.4153 27.7747L8.44946 11.2444Z" stroke="white"/>
<path d="M19.55 10.2274C19.3615 10.2702 19.2434 10.4577 19.2862 10.6462L19.984 13.7179C20.0269 13.9064 20.2144 14.0245 20.4029 13.9817C20.5914 13.9389 20.7095 13.7514 20.6666 13.5629L20.0463 10.8324L22.7768 10.2121C22.9653 10.1693 23.0834 9.98179 23.0405 9.79329C22.9977 9.60479 22.8102 9.4867 22.6217 9.52953L19.55 10.2274ZM30.6952 17.831C30.8836 17.7882 31.0017 17.6007 30.9589 17.4122L30.2611 14.3405C30.2183 14.152 30.0307 14.0339 29.8422 14.0767C29.6537 14.1195 29.5357 14.307 29.5785 14.4955L30.1988 17.226L27.4683 17.8463C27.2799 17.8891 27.1618 18.0766 27.2046 18.2651C27.2474 18.4536 27.4349 18.5717 27.6234 18.5289L30.6952 17.831ZM19.6275 10.5687L19.441 10.8648L30.4311 17.7859L30.6176 17.4897L30.8041 17.1936L19.814 10.2725L19.6275 10.5687Z" fill="white"/>
</svg>
