<svg width="43" height="43" viewBox="0 0 43 43" fill="none" xmlns="http://www.w3.org/2000/svg">
<circle cx="21.1373" cy="21.1373" r="21.1373" fill="#68C9A5"/>
<path d="M11.0527 25.125L13.7676 16.4336H14.959L14.7246 18.1621L11.9609 27H10.7988L11.0527 25.125ZM9.22656 16.4336L11.541 25.2227L11.707 27H10.4863L7.41992 16.4336H9.22656ZM17.5566 25.1543L19.7637 16.4336H21.5605L18.4941 27H17.2832L17.5566 25.1543ZM15.2227 16.4336L17.8789 24.9785L18.1816 27H17.0293L14.1875 18.1426L13.9531 16.4336H15.2227ZM27.6445 25.7109C28.0742 25.7109 28.4714 25.623 28.8359 25.4473C29.2005 25.2715 29.5 25.0306 29.7344 24.7246C29.9688 24.4121 30.1022 24.0573 30.1348 23.6602H31.8535C31.821 24.2852 31.6094 24.8678 31.2188 25.4082C30.8346 25.9421 30.3301 26.375 29.7051 26.707C29.0801 27.0326 28.3932 27.1953 27.6445 27.1953C26.8503 27.1953 26.1569 27.0553 25.5645 26.7754C24.9785 26.4954 24.4902 26.1113 24.0996 25.623C23.7155 25.1348 23.4258 24.5749 23.2305 23.9434C23.0417 23.3053 22.9473 22.6315 22.9473 21.9219V21.5117C22.9473 20.8021 23.0417 20.1315 23.2305 19.5C23.4258 18.862 23.7155 18.2988 24.0996 17.8105C24.4902 17.3223 24.9785 16.9382 25.5645 16.6582C26.1569 16.3783 26.8503 16.2383 27.6445 16.2383C28.4714 16.2383 29.194 16.4076 29.8125 16.7461C30.431 17.0781 30.916 17.5339 31.2676 18.1133C31.6257 18.6862 31.821 19.3372 31.8535 20.0664H30.1348C30.1022 19.6302 29.9785 19.2363 29.7637 18.8848C29.5553 18.5332 29.2689 18.2533 28.9043 18.0449C28.5462 17.8301 28.1263 17.7227 27.6445 17.7227C27.0911 17.7227 26.6257 17.8333 26.248 18.0547C25.877 18.2695 25.5807 18.5625 25.3594 18.9336C25.1445 19.2982 24.9883 19.7051 24.8906 20.1543C24.7995 20.597 24.7539 21.0495 24.7539 21.5117V21.9219C24.7539 22.3841 24.7995 22.8398 24.8906 23.2891C24.9818 23.7383 25.1348 24.1452 25.3496 24.5098C25.571 24.8743 25.8672 25.1673 26.2383 25.3887C26.6159 25.6035 27.0846 25.7109 27.6445 25.7109Z" fill="white"/>
</svg>
