<svg width="27" height="26" viewBox="0 0 27 26" fill="none" xmlns="http://www.w3.org/2000/svg">
<path d="M26.2212 12.9803C26.2212 13.5554 25.9928 14.1069 25.5861 14.5136C25.1795 14.9202 24.6279 15.1487 24.0528 15.1487H15.3139V23.8897C15.2893 24.4478 15.0503 24.9748 14.6467 25.3609C14.2431 25.7471 13.7061 25.9626 13.1476 25.9626C12.589 25.9626 12.052 25.7471 11.6484 25.3609C11.2448 24.9748 11.0058 24.4478 10.9812 23.8897V15.1487H2.23598C1.94567 15.1577 1.65651 15.1084 1.38564 15.0035C1.11478 14.8987 0.867742 14.7405 0.65919 14.5383C0.450638 14.3362 0.284823 14.0942 0.171586 13.8267C0.0583498 13.5592 0 13.2718 0 12.9813C0 12.6909 0.0583498 12.4034 0.171586 12.1359C0.284823 11.8684 0.450638 11.6265 0.65919 11.4243C0.867742 11.2222 1.11478 11.064 1.38564 10.9591C1.65651 10.8543 1.94567 10.8049 2.23598 10.8139H10.9791V2.07289C11.0037 1.51487 11.2427 0.98787 11.6463 0.601705C12.0499 0.21554 12.5869 0 13.1455 0C13.704 0 14.241 0.21554 14.6446 0.601705C15.0482 0.98787 15.2872 1.51487 15.3118 2.07289V10.8139H24.0549C24.6297 10.8145 25.1807 11.0432 25.5869 11.4498C25.9931 11.8564 26.2212 12.4055 26.2212 12.9803Z" fill="#1E1E1E"/>
</svg>
