<svg width="43" height="43" viewBox="0 0 43 43" fill="none" xmlns="http://www.w3.org/2000/svg">
<circle cx="21.1373" cy="21.1373" r="21.1373" fill="#87D9BB"/>
<path d="M22.8945 22.4238H19.0957V20.8906H22.8945C23.6302 20.8906 24.2259 20.7734 24.6816 20.5391C25.1374 20.3047 25.4694 19.9792 25.6777 19.5625C25.8926 19.1458 26 18.6706 26 18.1367C26 17.6484 25.8926 17.1895 25.6777 16.7598C25.4694 16.3301 25.1374 15.985 24.6816 15.7246C24.2259 15.4577 23.6302 15.3242 22.8945 15.3242H19.5352V28H17.6504V13.7812H22.8945C23.9688 13.7812 24.877 13.9668 25.6191 14.3379C26.3613 14.709 26.9245 15.2233 27.3086 15.8809C27.6927 16.5319 27.8848 17.2773 27.8848 18.1172C27.8848 19.0286 27.6927 19.8066 27.3086 20.4512C26.9245 21.0957 26.3613 21.5872 25.6191 21.9258C24.877 22.2578 23.9688 22.4238 22.8945 22.4238Z" fill="white"/>
</svg>
